<svg xmlns="http://www.w3.org/2000/svg" xmlns:xlink="http://www.w3.org/1999/xlink" width="16" height="16" viewBox="0 0 128 128"><path fill="#1C001A" transform="scale(0.25 0.25)" d="M394.328 436.659L125.956 436.672C99.9812 436.729 75.913 423.889 73.9526 395.104C73.5468 389.147 73.9736 382.904 73.9942 376.921L74.0005 121.994C73.9546 107.268 74.1687 97.1984 84.8369 85.1444C93.7003 75.1297 104.084 71.0636 117.19 70.3048L369.497 70.3112C378.599 70.3088 391.571 69.6263 400.251 70.9004C421.162 73.9701 436.876 92.5065 437.844 113.371C438.176 120.523 437.934 127.779 437.93 134.94L437.929 382.581C437.935 398.342 437.545 409.964 426.181 422.435C417.653 431.793 406.807 436.107 394.328 436.659ZM177.873 170.869C162.354 171.895 147.811 175.291 137.098 187.491C122.864 203.699 121.574 232.86 138.713 247.652C156.368 262.888 190.981 263.075 204.114 276.008C210.957 282.747 209.981 294.949 203.88 301.807C194.038 312.868 170.834 312.021 160.357 302.513C154.888 297.55 152.914 290.353 151.903 283.298L123.042 283.298C120.829 314.948 153.063 338.055 182.739 334.555C196.543 335.779 211.935 330.648 222.546 321.798C239.66 307.524 245.068 277.351 230.17 259.605C211.207 237.018 178.595 240.253 162.462 226.705C154.546 220.057 154.904 207.573 162.75 201.032C172.826 192.632 192.892 193.707 201.291 204.157C205.617 209.54 206.455 216.4 207.53 222.984C217.45 222.984 227.404 222.829 237.321 222.984C236.946 188.586 210.775 169.643 177.873 170.869ZM299.437 173.246C287.086 174.856 277.127 179.551 269.463 189.597C260.856 200.879 261.477 212.234 261.478 225.662L261.481 282.321C261.48 288.207 261.167 294.3 261.965 300.141C264.126 315.965 277.008 330.88 292.979 333.876C298.112 334.84 303.471 334.558 308.675 334.561L344.332 334.587C365.398 334.676 383.883 327.079 388.358 303.545C390.598 291.766 389.54 255.303 389.127 241.998L320.253 241.998L320.253 266.625L320.253 271.127L359.734 271.127L359.76 286C359.777 300.386 359.075 306.71 342.942 306.732L315.545 306.736C295.021 306.722 291.193 307.772 291.245 285.418L291.256 233.072C291.251 227.169 291.118 221.231 291.269 215.33C291.704 198.417 307.983 202.013 319.748 202.01C328.437 202.007 337.209 201.775 345.889 202.1C359.386 202.604 360.651 211.29 359.734 222.984L389.127 222.984C389.687 208.977 388.313 196.465 378.414 185.715C364.377 170.471 344.856 173.246 326.21 173.25C317.296 173.252 308.347 173.039 299.437 173.246Z" /></svg>